<?xml version="1.0" encoding="UTF-8"?>
<svg version="1.1" xmlns="http://www.w3.org/2000/svg" width="512" height="512">
<path d="M0 0 C2.88437779 1.29299694 4.87219421 2.65941363 7 5 C7.433125 4.34 7.86625 3.68 8.3125 3 C8.869375 2.34 9.42625 1.68 10 1 C10.99 1 11.98 1 13 1 C13.33 1.66 13.66 2.32 14 3 C15.89533342 3.46523063 15.89533342 3.46523063 18.0625 3.625 C19.361875 3.74875 20.66125 3.8725 22 4 C22 4.99 22 5.98 22 7 C24.31 7 26.62 7 29 7 C29 8.98 29 10.96 29 13 C32.00259517 13.33218192 32.00259517 13.33218192 33.6875 11.5 C34.120625 11.005 34.55375 10.51 35 10 C35.99 10.495 35.99 10.495 37 11 C37.625 13.0625 37.625 13.0625 38 15 C39.32 14.67 40.64 14.34 42 14 C42.99 16.97 42.99 16.97 44 20 C51.59 20.33 59.18 20.66 67 21 C67.33 19.02 67.66 17.04 68 15 C69.8125 14.3125 69.8125 14.3125 72 14 C73.75 15.4375 73.75 15.4375 75 17 C74.67 17.66 74.34 18.32 74 19 C73.960008 20.99960012 73.95653201 23.00047242 74 25 C74.66 25.33 75.32 25.66 76 26 C76 26.99 76 27.98 76 29 C76.99 29.33 77.98 29.66 79 30 C79.33 30.66 79.66 31.32 80 32 C83.18234105 30.24545615 83.18234105 30.24545615 86 28 C93.61361216 28.04082366 100.18577612 28.59288806 107 32 C108.98821313 32.39764263 110.98732362 32.75455166 113 33 C113 34.65 113 36.3 113 38 C113.99 38.33 114.98 38.66 116 39 C116.33 38.01 116.66 37.02 117 36 C117.99 36.33 118.98 36.66 120 37 C120 38.32 120 39.64 120 41 C120.40734375 40.50886719 120.8146875 40.01773438 121.234375 39.51171875 C123.4412404 37.62221232 124.38862985 37.597397 127.25 37.8125 C132.15050091 38.57444368 134.72615393 40.68147387 137.7578125 44.5234375 C139.95050867 48.89503929 139.55072952 53.24449429 139 58 C137.515 58.495 137.515 58.495 136 59 C136.185625 60.11375 136.37125 61.2275 136.5625 62.375 C137 66 137 66 136 68 C136.66 68 137.32 68 138 68 C138.19335938 68.61488281 138.38671875 69.22976562 138.5859375 69.86328125 C138.84632813 70.67152344 139.10671875 71.47976562 139.375 72.3125 C139.75785156 73.51326172 139.75785156 73.51326172 140.1484375 74.73828125 C140.98831811 77.22724528 140.98831811 77.22724528 143 80 C143.7482053 82.66530493 144.43247595 85.30742572 145.0625 88 C146.37173476 93.54369807 146.37173476 93.54369807 148 99 C144.57538847 102.0907119 141.51120055 102.74457195 137 103.4375 C135.783125 103.64246094 134.56625 103.84742188 133.3125 104.05859375 C130 104 130 104 127.5625 102.03515625 C126.7890625 101.02775391 126.7890625 101.02775391 126 100 C126.66 101.65 127.32 103.3 128 105 C126.00378843 106.99621157 122.12227408 106.36777825 119.375 106.5 C110.52991911 106.26640868 110.52991911 106.26640868 103 109 C104.175625 108.938125 105.35125 108.87625 106.5625 108.8125 C109.85321321 108.79521079 111.24011894 109.10671953 114.375 110.5 C119.0443472 112.43214367 123.02003489 112.27054136 128 112 C128 112.66 128 113.32 128 114 C129.11375 113.690625 129.11375 113.690625 130.25 113.375 C133.32330841 112.95591249 134.42786866 113.38050989 137 115 C137 116.98 137 118.96 137 121 C137.515625 121.0825 138.03125 121.165 138.5625 121.25 C141.38264898 122.11773815 143.69546898 123.52456537 146.20703125 125.05078125 C148.12910496 126.17612938 148.12910496 126.17612938 151.0625 126.625 C155.81132915 128.8478562 157.8683328 133.33603311 160 138 C160 138.99 160 139.98 160 141 C160.61875 141.165 161.2375 141.33 161.875 141.5 C164.82554345 143.58273656 164.87252345 145.61938001 165.5625 149.05078125 C165.92631717 151.08975881 165.92631717 151.08975881 167.125 153.0625 C168.43972798 155.97368338 168 158.83391302 168 162 C168.33644531 162.76957031 168.67289062 163.53914062 169.01953125 164.33203125 C170.2172829 167.59125189 170.02652038 169.80261204 169.6875 173.25 C169.58308594 174.46816406 169.47867187 175.68632812 169.37109375 176.94140625 C169.24755689 178.29428555 169.12385029 179.64714936 169 181 C168.72569014 184.06103366 168.48001314 187.12284565 168.25 190.1875 C168.14691528 191.28336426 168.14691528 191.28336426 168.04174805 192.40136719 C167.83728771 194.7185328 167.83728771 194.7185328 168 198 C169.44658388 199.69195684 169.44658388 199.69195684 171 201 C171.22334465 208.39664923 167.5810784 213.60976373 163 219 C162.34 219.99 161.68 220.98 161 222 C160.34 222 159.68 222 159 222 C157.43727811 226.39253773 157.43727811 226.39253773 157 231 C157.99 231 158.98 231 160 231 C161.59090909 239.11363636 161.59090909 239.11363636 159 243 C154.97571235 245.20196872 151.61180839 246.54256569 147 246 C146.67 245.67 146.34 245.34 146 245 C145.566875 246.175625 145.13375 247.35125 144.6875 248.5625 C143.23964555 252.43033974 141.65520683 256.21667009 140 260 C139.67 260 139.34 260 139 260 C138.01 263.96 137.02 267.92 136 272 C135.34 272 134.68 272 134 272 C134.20625 272.78375 134.4125 273.5675 134.625 274.375 C134.74875 275.24125 134.8725 276.1075 135 277 C133 279 133 279 129.5 279.375 C128.345 279.58125 127.19 279.7875 126 280 C124.48705712 281.93597032 124.48705712 281.93597032 124 284 C124.66 284.99 125.32 285.98 126 287 C126 292.11319294 122.48882637 296.50300308 119 300 C117.66854882 300.34077361 116.33544676 300.67523727 115 301 C114.67 301.99 114.34 302.98 114 304 C109.15416444 307.85181801 103.74456403 309.8163408 98 312 C93.21234408 313.53315545 93.21234408 313.53315545 90 317 C86.9375 317.625 86.9375 317.625 84 318 C83.67 316.68 83.34 315.36 83 314 C82.62875 314.515625 82.2575 315.03125 81.875 315.5625 C80 317 80 317 77 316.75 C74 316 74 316 71 315 C69.24763912 315.98769432 67.49529422 316.98185281 65.81640625 318.08984375 C64 319 64 319 60 319 C57.99598989 319.30830925 55.99488234 319.63729412 54 320 C54.33 321.32 54.66 322.64 55 324 C54.29875 323.855625 53.5975 323.71125 52.875 323.5625 C51.92625 323.376875 50.9775 323.19125 50 323 C48.6078125 322.690625 48.6078125 322.690625 47.1875 322.375 C44.41704905 322.04906459 42.6306565 322.13220244 39.9375 322.5625 C36.05474996 322.99391667 34.3792649 322.79523448 31 321 C31 320.34 31 319.68 31 319 C30.360625 318.71125 29.72125 318.4225 29.0625 318.125 C27 317 27 317 26 315 C25.67 316.32 25.34 317.64 25 319 C24.195625 318.814375 23.39125 318.62875 22.5625 318.4375 C21.716875 318.293125 20.87125 318.14875 20 318 C19.67 318.33 19.34 318.66 19 319 C12.36329972 319.86875261 8.535574 318.54276736 3 315 C2.01 315 1.02 315 0 315 C-2.125 310.375 -2.125 310.375 -1 307 C-0.8453125 305.2365625 -0.8453125 305.2365625 -0.6875 303.4375 C-0.460625 302.303125 -0.23375 301.16875 0 300 C2 298.75 2 298.75 4 298 C4.33 297.01 4.66 296.02 5 295 C5.66 295 6.32 295 7 295 C7.62457273 291.56484998 8 288.50935186 8 285 C9.32 285 10.64 285 12 285 C11.67 282.03 11.34 279.06 11 276 C10.34 276 9.68 276 9 276 C8.70996094 274.95199219 8.70996094 274.95199219 8.4140625 273.8828125 C8.15367187 272.97273438 7.89328125 272.06265625 7.625 271.125 C7.36976563 270.22007812 7.11453125 269.31515625 6.8515625 268.3828125 C6.1395685 265.85430274 6.1395685 265.85430274 4 264 C4 263.01 4 262.02 4 261 C3.236875 260.731875 2.47375 260.46375 1.6875 260.1875 C-0.90483979 259.04204753 -2.30075537 258.23584819 -4 256 C-4 255.01 -4 254.02 -4 253 C-2.824375 252.5978125 -2.824375 252.5978125 -1.625 252.1875 C1.28114923 251.15185568 1.28114923 251.15185568 3 248 C3.53566533 241.15996577 0.80137791 235.50315756 -3 230 C-4.29779632 228.63205253 -5.6164076 227.28110407 -7 226 C-7 225.34 -7 224.68 -7 224 C-7.78375 223.71125 -8.5675 223.4225 -9.375 223.125 C-12 222 -12 222 -14 220 C-14 219.01 -14 218.02 -14 217 C-14.57105469 216.89429688 -15.14210938 216.78859375 -15.73046875 216.6796875 C-18.35485277 215.8937274 -20.08647965 214.7144497 -22.3125 213.125 C-26.10107675 210.51564912 -29.71156899 208.64237783 -34 207 C-34 206.34 -34 205.68 -34 205 C-34.99 205 -35.98 205 -37 205 C-36.67 205.99 -36.34 206.98 -36 208 C-36.9375 210.1875 -36.9375 210.1875 -38 212 C-37.01 212 -36.02 212 -35 212 C-34.5978125 213.11375 -34.5978125 213.11375 -34.1875 214.25 C-33.05770579 216.86636554 -31.79106798 218.80187111 -30 221 C-30.33 221.66 -30.66 222.32 -31 223 C-33.5 221.625 -33.5 221.625 -36 220 C-36 219.34 -36 218.68 -36 218 C-36.61875 217.855625 -37.2375 217.71125 -37.875 217.5625 C-40 217 -40 217 -42 216 C-42 215.34 -42 214.68 -42 214 C-43.32 214 -44.64 214 -46 214 C-46 214.66 -46 215.32 -46 216 C-46.969375 216.268125 -47.93875 216.53625 -48.9375 216.8125 C-52.22571815 218.65283789 -52.22571815 218.65283789 -52.62109375 221.6484375 C-52.85441221 224.44107996 -52.99048582 227.19807297 -53 230 C-60.625 229.125 -60.625 229.125 -64 228 C-63.67 229.32 -63.34 230.64 -63 232 C-64.98 232.99 -64.98 232.99 -67 234 C-67 238.7339375 -64.57819196 242.13271207 -62 246 C-62 247.32 -62 248.64 -62 250 C-62.66 250.33 -63.32 250.66 -64 251 C-63.484375 251.391875 -62.96875 251.78375 -62.4375 252.1875 C-61 254 -61 254 -61.1875 256.5 C-62 259 -62 259 -64 262 C-70.66527197 260.51882845 -70.66527197 260.51882845 -72.25 258.0625 C-72.4975 257.381875 -72.745 256.70125 -73 256 C-73.53625 255.46375 -74.0725 254.9275 -74.625 254.375 C-75.07875 253.92125 -75.5325 253.4675 -76 253 C-76 252.34 -76 251.68 -76 251 C-76.99 251 -77.98 251 -79 251 C-79 251.99 -79 252.98 -79 254 C-79.66 254 -80.32 254 -81 254 C-81.66 253.01 -82.32 252.02 -83 251 C-83.66 251.66 -84.32 252.32 -85 253 C-85.3373846 256.12498166 -85.3373846 256.12498166 -83 258.1875 C-82.34 258.785625 -81.68 259.38375 -81 260 C-83.375 260.625 -83.375 260.625 -86 261 C-86.66 260.34 -87.32 259.68 -88 259 C-88.556875 259.165 -89.11375 259.33 -89.6875 259.5 C-93.1199605 260.24215362 -95.69337204 259.0441983 -99 258 C-99.86625 257.855625 -100.7325 257.71125 -101.625 257.5625 C-104 257 -104 257 -106.5 255.4375 C-109.28155668 253.83810491 -110.84930659 253.72994056 -114 254 C-114.2475 253.21625 -114.495 252.4325 -114.75 251.625 C-116.20780864 248.56360186 -117.07993473 248.41293481 -120 247 C-120.33333333 245.66666667 -120.66666667 244.33333333 -121 243 C-122.9001177 241.75825204 -122.9001177 241.75825204 -125 241 C-127.64186789 239.67906606 -128.08602613 238.22690297 -129.4375 235.625 C-131.02490897 232.56961095 -132.57613403 230.4167993 -135 228 C-135 227.34 -135 226.68 -135 226 C-135.804375 225.79375 -136.60875 225.5875 -137.4375 225.375 C-138.283125 224.92125 -139.12875 224.4675 -140 224 C-140.8125 220.875 -140.8125 220.875 -141 218 C-142.98 218.33 -144.96 218.66 -147 219 C-146.8125 216.625 -146.8125 216.625 -146 214 C-143.4375 212.6875 -143.4375 212.6875 -141 212 C-143.2236068 210.7018576 -143.2236068 210.7018576 -147 211 C-146.67 209.35 -146.34 207.7 -146 206 C-144.35 206 -142.7 206 -141 206 C-141.98771085 200.66636139 -143.15311063 196.65854624 -146 192 C-146.26710399 189.12863207 -146.28970458 187.57940917 -145 185 C-145.33 184.34 -145.66 183.68 -146 183 C-146.33 183.99 -146.66 184.98 -147 186 C-147.99 186 -148.98 186 -150 186 C-150.33 186.99 -150.66 187.98 -151 189 C-151.99 189 -152.98 189 -154 189 C-154.33 190.32 -154.66 191.64 -155 193 C-155.99 193 -156.98 193 -158 193 C-158 190.69 -158 188.38 -158 186 C-158.66 186 -159.32 186 -160 186 C-159.67 188.64 -159.34 191.28 -159 194 C-162 196 -162 196 -165 196 C-164.7215625 195.0409375 -164.7215625 195.0409375 -164.4375 194.0625 C-164.03668553 191.25679873 -164.13029206 189.3329696 -164.5 186.5625 C-164.99946312 182.77282355 -164.62948353 179.77690117 -164 176 C-164.19363113 173.66432447 -164.4916221 171.36762277 -164.84375 169.05078125 C-165 167 -165 167 -164 164 C-164.99 164 -165.98 164 -167 164 C-167 163.01 -167 162.02 -167 161 C-167.66 161 -168.32 161 -169 161 C-168 158 -168 158 -165 156 C-164.855625 155.21625 -164.71125 154.4325 -164.5625 153.625 C-163.85670275 150.3312795 -162.37822969 149.30391001 -160 147 C-159.2127322 144.8618034 -159.2127322 144.8618034 -159 143 C-160.32 142.67 -161.64 142.34 -163 142 C-163 141.34 -163 140.68 -163 140 C-163.66 140 -164.32 140 -165 140 C-164.34 138.68 -163.68 137.36 -163 136 C-161.68 136 -160.36 136 -159 136 C-159 134.35 -159 132.7 -159 131 C-158.01 131 -157.02 131 -156 131 C-156.02288504 127.60269305 -156.10030286 124.20871695 -156.1875 120.8125 C-156.19330078 119.85279297 -156.19910156 118.89308594 -156.20507812 117.90429688 C-156.34310214 113.47219238 -156.53659942 110.72899691 -158.94921875 106.93359375 C-163.08612262 104.31161242 -166.81607658 103.79646857 -171.625 103.25 C-173.3257553 103.02782926 -175.02628759 102.80394276 -176.7265625 102.578125 C-177.84925537 102.44519043 -177.84925537 102.44519043 -178.99462891 102.30957031 C-181 102 -181 102 -184 101 C-184.061875 100.21625 -184.12375 99.4325 -184.1875 98.625 C-184.72016575 95.82220706 -184.72016575 95.82220706 -187.1875 94.8125 C-188.115625 94.544375 -189.04375 94.27625 -190 94 C-191.010625 93.649375 -192.02125 93.29875 -193.0625 92.9375 C-195.36828382 92.20161155 -197.64352444 91.54380205 -200 91 C-200.12375 90.360625 -200.2475 89.72125 -200.375 89.0625 C-200.58125 88.381875 -200.7875 87.70125 -201 87 C-201.66 86.67 -202.32 86.34 -203 86 C-205.17506244 82.19364072 -207 78.41221478 -207 74 C-207.99 74 -208.98 74 -210 74 C-211.15643724 69.26067238 -212.15337337 64.90794798 -212 60 C-212.33 59.67 -212.66 59.34 -213 59 C-213.09956009 56.7101179 -213.1296872 54.41704063 -213.125 52.125 C-213.12757813 50.86945313 -213.13015625 49.61390625 -213.1328125 48.3203125 C-213 45 -213 45 -212 42 C-210.35 42 -208.7 42 -207 42 C-207 42.66 -207 43.32 -207 44 C-207.66 44 -208.32 44 -209 44 C-208.40138258 46.35171131 -207.73075648 48.6859378 -207 51 C-206.34 51.33 -205.68 51.66 -205 52 C-205.20625 53.19625 -205.4125 54.3925 -205.625 55.625 C-206.10937925 59.59129386 -205.7865117 62.34190461 -204 66 C-202.006748 67.87310888 -202.006748 67.87310888 -200 69 C-199.67 67.35 -199.34 65.7 -199 64 C-198.01 64.66 -197.02 65.32 -196 66 C-196 67.32 -196 68.64 -196 70 C-196.99 70.99 -196.99 70.99 -198 72 C-197.34 72.66 -196.68 73.32 -196 74 C-197.485 74.99 -197.485 74.99 -199 76 C-198.01 76.33 -197.02 76.66 -196 77 C-196 78.32 -196 79.64 -196 81 C-195.34 81.66 -194.68 82.32 -194 83 C-194.33 83.66 -194.66 84.32 -195 85 C-193.906875 84.95875 -192.81375 84.9175 -191.6875 84.875 C-188 85 -188 85 -185 87 C-185 85.02 -185 83.04 -185 81 C-184.34 81 -183.68 81 -183 81 C-183 81.66 -183 82.32 -183 83 C-182.36497559 83.06993164 -181.72995117 83.13986328 -181.07568359 83.21191406 C-178.17327048 83.5411683 -175.27441411 83.89534279 -172.375 84.25 C-171.37597656 84.35957031 -170.37695312 84.46914062 -169.34765625 84.58203125 C-163.39088644 85.33155858 -159.75945311 86.36660046 -155 90 C-154.01 90 -153.02 90 -152 90 C-152 90.66 -152 91.32 -152 92 C-151.21625 91.814375 -150.4325 91.62875 -149.625 91.4375 C-147 91 -147 91 -145 92 C-145 93.32 -145 94.64 -145 96 C-144.13375 96.185625 -144.13375 96.185625 -143.25 96.375 C-140.82599488 97.04833476 -139.07041295 97.55071094 -137 99 C-135.6875 102 -135.6875 102 -135 105 C-135.33 105.66 -135.66 106.32 -136 107 C-134.02 107.495 -134.02 107.495 -132 108 C-131 113 -130 118 -129 123 C-128.7628125 123.8765625 -128.525625 124.753125 -128.28125 125.65625 C-127.91420382 128.71496814 -128.70529796 130.51204082 -129.9375 133.3125 C-130.31777344 134.19550781 -130.69804687 135.07851562 -131.08984375 135.98828125 C-131.39019531 136.65214844 -131.69054687 137.31601563 -132 138 C-127.29157376 135.88673474 -127.29157376 135.88673474 -124 132 C-120.125 132.875 -120.125 132.875 -119 134 C-118.70643846 137.62059232 -119.14935681 139.87703962 -121 143 C-120.01 142.34 -119.02 141.68 -118 141 C-117.34 141.33 -116.68 141.66 -116 142 C-115.875 147.75 -115.875 147.75 -117 150 C-114.98567734 149.49743888 -114.98567734 149.49743888 -113 148 C-111.70079254 144.45411499 -111.70079254 144.45411499 -111 141 C-110.319375 141.165 -109.63875 141.33 -108.9375 141.5 C-105.5835178 142.07089059 -102.39610195 142.06659023 -99 142 C-99 140.02 -99 138.04 -99 136 C-98.28972656 135.73445312 -97.57945312 135.46890625 -96.84765625 135.1953125 C-95.46900391 134.66550781 -95.46900391 134.66550781 -94.0625 134.125 C-93.14597656 133.77695313 -92.22945313 133.42890625 -91.28515625 133.0703125 C-88.85058944 132.2180914 -88.85058944 132.2180914 -88 130 C-87.34 130 -86.68 130 -86 130 C-85.01 132.475 -85.01 132.475 -84 135 C-83.34 133.35 -82.68 131.7 -82 130 C-81.608125 130.474375 -81.21625 130.94875 -80.8125 131.4375 C-78.59191626 133.35179633 -76.86624291 133.61266988 -74 134 C-74.474375 133.29875 -74.94875 132.5975 -75.4375 131.875 C-77.7797828 127.56519964 -78.31161083 124.50139764 -77.3125 119.6875 C-76 117 -76 117 -73.875 116.125 C-73.25625 116.08375 -72.6375 116.0425 -72 116 C-71.84188612 112.94729537 -71.84188612 112.94729537 -73 110 C-73.03954234 107.66700175 -73.04401732 105.33291811 -73 103 C-72.01 103 -71.02 103 -70 103 C-70.0825 102.319375 -70.165 101.63875 -70.25 100.9375 C-69.91365038 96.98539197 -68.40660193 94.07753338 -66 91 C-64.07130988 89.39119019 -62.1979 88.24880682 -60 87 C-60.61488281 87.09539062 -61.22976562 87.19078125 -61.86328125 87.2890625 C-62.67152344 87.39992188 -63.47976562 87.51078125 -64.3125 87.625 C-65.11300781 87.74101562 -65.91351563 87.85703125 -66.73828125 87.9765625 C-69 88 -69 88 -72 86 C-72 86.66 -72 87.32 -72 88 C-74.97 88 -77.94 88 -81 88 C-84.45140179 81.09719641 -84.51904534 75.88269536 -82.4375 68.4375 C-79.40113772 59.52598467 -74.99000196 53.91692428 -67 49 C-66.34 49 -65.68 49 -65 49 C-64.67 45.37 -64.34 41.74 -64 38 C-62.68 38 -61.36 38 -60 38 C-60 37.01 -60 36.02 -60 35 C-60.99 35 -61.98 35 -63 35 C-63.8125 31.8125 -63.8125 31.8125 -64 28 C-61.8125 25.3125 -61.8125 25.3125 -59 23 C-56.17672567 20.41199853 -54.55069369 18.85485585 -54 15 C-55.98 14.505 -55.98 14.505 -58 14 C-58 12.68 -58 11.36 -58 10 C-56.02 10.495 -56.02 10.495 -54 11 C-53.67 9.35 -53.34 7.7 -53 6 C-51.0625 6.75 -51.0625 6.75 -49 8 C-48.25 10.125 -48.25 10.125 -48 12 C-47.34 12 -46.68 12 -46 12 C-46.33 9.69 -46.66 7.38 -47 5 C-44.35261084 3.5393715 -43.10551666 3 -40 3 C-40 4.32 -40 5.64 -40 7 C-35.71 7 -31.42 7 -27 7 C-26.67 7.66 -26.34 8.32 -26 9 C-25.566875 8.54625 -25.13375 8.0925 -24.6875 7.625 C-21.89517232 4.93609186 -19.58977337 3.74153081 -15.83984375 3.11328125 C-15.04642578 2.97986328 -14.25300781 2.84644531 -13.43554688 2.70898438 C-12.61119141 2.57814453 -11.78683594 2.44730469 -10.9375 2.3125 C-9.69516602 2.09883789 -9.69516602 2.09883789 -8.42773438 1.88085938 C-2.25677307 0.87161347 -2.25677307 0.87161347 0 2 C0 1.34 0 0.68 0 0 Z M146 239 C147 243 147 243 147 243 Z " fill="#9D9D9D" transform="translate(293,113)"/>
<path d="M0 0 C2.1385485 2.1385485 2.42655063 3.13275314 3 6 C4.41538717 6.33872513 5.83237963 6.67074624 7.25 7 C8.03890625 7.185625 8.8278125 7.37125 9.640625 7.5625 C12.25556002 8.12154828 12.25556002 8.12154828 16 8 C16 8.66 16 9.32 16 10 C16.66 9.67 17.32 9.34 18 9 C19.37369674 8.89740024 20.74911308 8.81711644 22.125 8.75 C27.26517158 8.24263679 31.02537694 6.2547296 35 3 C35.33 2.34 35.66 1.68 36 1 C36.99 1.33 37.98 1.66 39 2 C38.835 2.7425 38.67 3.485 38.5 4.25 C37.88074304 7.19006578 37.88074304 7.19006578 38 11 C37.7018576 12.34164079 37.37756808 13.67851173 37 15 C37.66 15 38.32 15 39 15 C39 15.66 39 16.32 39 17 C38.34 17 37.68 17 37 17 C36.731875 17.804375 36.46375 18.60875 36.1875 19.4375 C35.795625 20.283125 35.40375 21.12875 35 22 C34.01 22.33 33.02 22.66 32 23 C31.87625 23.61875 31.7525 24.2375 31.625 24.875 C31 27 31 27 28.6875 28.6875 C26 30 26 30 23.9375 30.4375 C21.21941127 31.22662253 19.94287533 32.99445127 18 35 C16.515 35.495 16.515 35.495 15 36 C14.505 35.505 14.505 35.505 14 35 C13.01 35.99 12.02 36.98 11 38 C9.515 37.505 9.515 37.505 8 37 C9.485 36.505 9.485 36.505 11 36 C10.505 35.505 10.505 35.505 10 35 C7.94603274 35.40929986 7.94603274 35.40929986 6 36 C6 36.66 6 37.32 6 38 C2.535 38.495 2.535 38.495 -1 39 C-1.495 37.515 -1.495 37.515 -2 36 C-2.99 36 -3.98 36 -5 36 C-5 36.66 -5 37.32 -5 38 C-6.65 37.67 -8.3 37.34 -10 37 C-13.34779021 26.95662937 -4.77070354 10.36179152 -1 1 C-0.67 0.67 -0.34 0.34 0 0 Z M15 10 C16 12 16 12 16 12 Z M15 19 C16.22809091 20.64555699 16.22809091 20.64555699 18 22 C20.16299211 21.77242269 20.16299211 21.77242269 22 21 C21.67 20.34 21.34 19.68 21 19 C19.02 19 17.04 19 15 19 Z M15 24 C16 27 16 27 16 27 Z M-1 32 C-0.67 33.65 -0.34 35.3 0 37 C0.66 36.67 1.32 36.34 2 36 C1.67 34.68 1.34 33.36 1 32 C0.34 32 -0.32 32 -1 32 Z " fill="#9D9D9D" transform="translate(24,61)"/>
<path d="M0 0 C1.32 0 2.64 0 4 0 C5.02269414 4.39758479 5.1262601 6.97129666 3 11 C2.34 11.66 1.68 12.32 1 13 C0.67 13.99 0.34 14.98 0 16 C-1.32 16 -2.64 16 -4 16 C-4 15.01 -4 14.02 -4 13 C-4.66 12.34 -5.32 11.68 -6 11 C-6 10.34 -6 9.68 -6 9 C-5.3503125 8.38125 -5.3503125 8.38125 -4.6875 7.75 C-2.46678553 5.44703684 -1.34473539 2.88157583 0 0 Z " fill="#9D9D9D" transform="translate(55,21)"/>
<path d="M0 0 C0.66 0 1.32 0 2 0 C1.67 1.32 1.34 2.64 1 4 C0.34 4 -0.32 4 -1 4 C-0.67 2.68 -0.34 1.36 0 0 Z " fill="#9D9D9D" transform="translate(432,153)"/>
<path d="M0 0 C0.66 0 1.32 0 2 0 C1.67 1.65 1.34 3.3 1 5 C0.34 5 -0.32 5 -1 5 C-0.67 3.35 -0.34 1.7 0 0 Z " fill="#9D9D9D" transform="translate(63,57)"/>
<path d="M0 0 C0.99 0 1.98 0 3 0 C2.67 0.99 2.34 1.98 2 3 C1.34 3 0.68 3 0 3 C0 2.01 0 1.02 0 0 Z " fill="#9D9D9D" transform="translate(265,465)"/>
<path d="M0 0 C0.99 0 1.98 0 3 0 C3 0.66 3 1.32 3 2 C2.01 2 1.02 2 0 2 C0 1.34 0 0.68 0 0 Z " fill="#9D9D9D" transform="translate(250,457)"/>
<path d="M0 0 C0.66 0 1.32 0 2 0 C1.67 0.99 1.34 1.98 1 3 C0.67 2.01 0.34 1.02 0 0 Z " fill="#9D9D9D" transform="translate(63,74)"/>
</svg>
